<svg width="20" height="20" viewBox="0 0 20 20" fill="none" xmlns="http://www.w3.org/2000/svg">
    <path fill-rule="evenodd" clip-rule="evenodd" d="M2.80128 7.08904C3.11743 3.443 6.18099 0.5 10.0001 0.5C13.8192 0.5 16.8827 3.44304 17.1989 7.0891C18.6109 7.43622 19.5982 8.76976 19.4676 10.2634L19.3804 11.2595C19.248 12.773 18.0136 13.9253 16.537 13.9949L16.3415 15.6566C16.1048 17.668 14.4136 19.1561 12.4404 19.189C12.1256 19.4923 11.6827 19.6576 11.2145 19.6033L9.74553 19.4328C8.91483 19.3364 8.31957 18.5848 8.41597 17.7541C8.51238 16.9234 9.26395 16.3282 10.0946 16.4246L11.5637 16.595C11.9873 16.6442 12.3497 16.8638 12.5904 17.1773C13.4955 17.0773 14.2444 16.3649 14.3552 15.4229L14.5461 13.7998C14.0383 13.6052 13.6991 13.0922 13.7488 12.5235L14.141 8.04065C14.1913 7.46612 14.6227 7.01651 15.1643 6.91915C14.7809 4.44465 12.6401 2.5 10.0001 2.5C7.36004 2.5 5.21925 4.44467 4.83583 6.91918C5.37734 7.01663 5.80864 7.4662 5.8589 8.04065L6.2511 12.5235C6.31127 13.2113 5.80253 13.8175 5.1148 13.8777L3.86956 13.9867C2.21901 14.1311 0.763909 12.9101 0.619504 11.2595L0.532349 10.2634C0.401669 8.76968 1.38916 7.43607 2.80128 7.08904ZM3.932 8.9621L4.19347 11.9507L3.69537 11.9943C3.14518 12.0424 2.66015 11.6354 2.61202 11.0852L2.52486 10.089C2.47673 9.53884 2.88372 9.05381 3.4339 9.00568L3.932 8.9621ZM16.0682 8.9621L15.8068 11.9507L16.3049 11.9943C16.855 12.0424 17.3401 11.6354 17.3882 11.0852L17.4754 10.089C17.5235 9.53884 17.1165 9.05381 16.5663 9.00568L16.0682 8.9621Z" fill="black"/>
</svg>
